Ubuntu-LightItalic.ufo
<glyph name="two" format="2">
  <advance width="564"/>
  <unicode hex="0032"/>
  <outline>
    <contour>
      <point x="101" y="0" type="curve"/>
      <point x="488" y="0" type="line"/>
      <point x="501" y="57" type="line"/>
      <point x="180" y="57" type="line"/>
      <point x="198" y="134"/>
      <point x="272" y="191"/>
      <point x="390" y="278" type="curve" smooth="yes"/>
      <point x="485" y="348"/>
      <point x="586" y="427"/>
      <point x="586" y="551" type="curve" smooth="yes"/>
      <point x="586" y="661"/>
      <point x="510" y="708"/>
      <point x="422" y="708" type="curve" smooth="yes"/>
      <point x="354" y="708"/>
      <point x="279" y="682"/>
      <point x="228" y="641" type="curve"/>
      <point x="250" y="587" type="line"/>
      <point x="293" y="623"/>
      <point x="357" y="649"/>
      <point x="412" y="649" type="curve" smooth="yes"/>
      <point x="469" y="649"/>
      <point x="516" y="617"/>
      <point x="516" y="543" type="curve" smooth="yes"/>
      <point x="516" y="443"/>
      <point x="436" y="384"/>
      <point x="346" y="318" type="curve" smooth="yes"/>
      <point x="243" y="243"/>
      <point x="127" y="160"/>
    </contour>
  </outline>
</glyph>
<glyph name="six" format="2">
  <advance width="564"/>
  <unicode hex="0036"/>
  <outline>
    <contour>
      <point x="309" y="-15" type="curve" smooth="yes"/>
      <point x="432" y="-15"/>
      <point x="557" y="81"/>
      <point x="557" y="249" type="curve" smooth="yes"/>
      <point x="557" y="344"/>
      <point x="506" y="414"/>
      <point x="385" y="414" type="curve" smooth="yes"/>
      <point x="330" y="414"/>
      <point x="274" y="398"/>
      <point x="224" y="373" type="curve"/>
      <point x="281" y="521"/>
      <point x="409" y="633"/>
      <point x="604" y="637" type="curve"/>
      <point x="611" y="696" type="line"/>
      <point x="315" y="691"/>
      <point x="125" y="463"/>
      <point x="125" y="191" type="curve" smooth="yes"/>
      <point x="125" y="53"/>
      <point x="207" y="-15"/>
    </contour>
    <contour>
      <point x="307" y="42" type="curve" smooth="yes"/>
      <point x="245" y="42"/>
      <point x="192" y="86"/>
      <point x="192" y="191" type="curve" smooth="yes"/>
      <point x="192" y="232"/>
      <point x="196" y="274"/>
      <point x="206" y="313" type="curve"/>
      <point x="251" y="335"/>
      <point x="311" y="354"/>
      <point x="365" y="354" type="curve" smooth="yes"/>
      <point x="453" y="354"/>
      <point x="487" y="308"/>
      <point x="487" y="237" type="curve" smooth="yes"/>
      <point x="487" y="119"/>
      <point x="405" y="42"/>
    </contour>
  </outline>
</glyph>
<glyph name="eight" format="2">
  <advance width="564"/>
  <unicode hex="0038"/>
  <outline>
    <contour>
      <point x="274" y="-15" type="curve" smooth="yes"/>
      <point x="412" y="-15"/>
      <point x="535" y="64"/>
      <point x="535" y="203" type="curve" smooth="yes"/>
      <point x="535" y="258"/>
      <point x="504" y="309"/>
      <point x="442" y="343" type="curve"/>
      <point x="564" y="402"/>
      <point x="601" y="484"/>
      <point x="601" y="561" type="curve" smooth="yes"/>
      <point x="601" y="660"/>
      <point x="533" y="708"/>
      <point x="436" y="708" type="curve" smooth="yes"/>
      <point x="315" y="708"/>
      <point x="199" y="629"/>
      <point x="199" y="489" type="curve" smooth="yes"/>
      <point x="199" y="434"/>
      <point x="230" y="389"/>
      <point x="271" y="364" type="curve"/>
      <point x="134" y="299"/>
      <point x="99" y="211"/>
      <point x="99" y="133" type="curve" smooth="yes"/>
      <point x="99" y="32"/>
      <point x="181" y="-15"/>
    </contour>
    <contour>
      <point x="283" y="41" type="curve" smooth="yes"/>
      <point x="221" y="41"/>
      <point x="168" y="74"/>
      <point x="168" y="150" type="curve" smooth="yes"/>
      <point x="168" y="206"/>
      <point x="209" y="283"/>
      <point x="319" y="338" type="curve"/>
      <point x="390" y="308"/>
      <point x="466" y="280"/>
      <point x="466" y="196" type="curve" smooth="yes"/>
      <point x="466" y="102"/>
      <point x="377" y="41"/>
    </contour>
    <contour>
      <point x="394" y="369" type="curve"/>
      <point x="331" y="392"/>
      <point x="267" y="423"/>
      <point x="267" y="492" type="curve" smooth="yes"/>
      <point x="267" y="597"/>
      <point x="343" y="652"/>
      <point x="427" y="652" type="curve" smooth="yes"/>
      <point x="495" y="652"/>
      <point x="533" y="618"/>
      <point x="533" y="552" type="curve" smooth="yes"/>
      <point x="533" y="483"/>
      <point x="490" y="419"/>
    </contour>
  </outline>
</glyph>
<glyph name="nine" format="2">
  <advance width="564"/>
  <unicode hex="0039"/>
  <outline>
    <contour>
      <point x="114" y="-2" type="curve" smooth="yes"/>
      <point x="404" y="-2"/>
      <point x="590" y="226"/>
      <point x="590" y="507" type="curve" smooth="yes"/>
      <point x="590" y="657"/>
      <point x="505" y="708"/>
      <point x="412" y="708" type="curve" smooth="yes"/>
      <point x="285" y="708"/>
      <point x="162" y="611"/>
      <point x="162" y="438" type="curve" smooth="yes"/>
      <point x="162" y="350"/>
      <point x="213" y="279"/>
      <point x="339" y="279" type="curve" smooth="yes"/>
      <point x="370" y="279"/>
      <point x="429" y="291"/>
      <point x="491" y="320" type="curve"/>
      <point x="435" y="163"/>
      <point x="303" y="50"/>
      <point x="100" y="56" type="curve"/>
      <point x="88" y="-1" type="line"/>
      <point x="97" y="-2"/>
      <point x="108" y="-2"/>
    </contour>
    <contour>
      <point x="350" y="339" type="curve" smooth="yes"/>
      <point x="266" y="339"/>
      <point x="232" y="389"/>
      <point x="232" y="449" type="curve" smooth="yes"/>
      <point x="232" y="581"/>
      <point x="315" y="651"/>
      <point x="412" y="651" type="curve" smooth="yes"/>
      <point x="483" y="651"/>
      <point x="523" y="602"/>
      <point x="523" y="509" type="curve" smooth="yes"/>
      <point x="523" y="464"/>
      <point x="518" y="420"/>
      <point x="508" y="379" type="curve"/>
      <point x="447" y="350"/>
      <point x="394" y="339"/>
    </contour>
  </outline>
</glyph>
<glyph name="B" format="2">
  <advance width="597"/>
  <unicode hex="0042"/>
  <outline>
    <contour>
      <point x="258" y="-6" type="curve" smooth="yes"/>
      <point x="428" y="-6"/>
      <point x="595" y="44"/>
      <point x="595" y="232" type="curve" smooth="yes"/>
      <point x="595" y="291"/>
      <point x="558" y="349"/>
      <point x="496" y="364" type="curve"/>
      <point x="571" y="388"/>
      <point x="639" y="452"/>
      <point x="639" y="543" type="curve" smooth="yes"/>
      <point x="639" y="667"/>
      <point x="525" y="700"/>
      <point x="410" y="700" type="curve" smooth="yes"/>
      <point x="348" y="700"/>
      <point x="286" y="690"/>
      <point x="243" y="680" type="curve"/>
      <point x="83" y="13" type="line"/>
      <point x="134" y="2"/>
      <point x="195" y="-6"/>
    </contour>
    <contour>
      <point x="260" y="52" type="curve" smooth="yes"/>
      <point x="223" y="52"/>
      <point x="189" y="54"/>
      <point x="161" y="59" type="curve"/>
      <point x="225" y="332" type="line"/>
      <point x="352" y="332" type="line" smooth="yes"/>
      <point x="473" y="332"/>
      <point x="523" y="306"/>
      <point x="523" y="228" type="curve" smooth="yes"/>
      <point x="523" y="82"/>
      <point x="391" y="52"/>
    </contour>
    <contour>
      <point x="240" y="390" type="line"/>
      <point x="300" y="634" type="line"/>
      <point x="325" y="638"/>
      <point x="360" y="641"/>
      <point x="396" y="641" type="curve" smooth="yes"/>
      <point x="511" y="641"/>
      <point x="568" y="610"/>
      <point x="568" y="531" type="curve" smooth="yes"/>
      <point x="568" y="446"/>
      <point x="501" y="390"/>
      <point x="333" y="390" type="curve" smooth="yes"/>
    </contour>
  </outline>
</glyph>
<glyph name="asciicircum" format="2">
  <advance width="564"/>
  <unicode hex="005E"/>
  <outline>
    <contour>
      <point x="517" y="331" type="line"/>
      <point x="566" y="353" type="line"/>
      <point x="461" y="693" type="line"/>
      <point x="412" y="693" type="line"/>
      <point x="150" y="360" type="line"/>
      <point x="195" y="334" type="line"/>
      <point x="424" y="625" type="line"/>
    </contour>
  </outline>
</glyph>
<glyph name="underscore" format="2">
  <advance width="549"/>
  <unicode hex="005F"/>
  <outline>
    <contour>
      <point x="-12" y="-185" type="line"/>
      <point x="488" y="-185" type="line"/>
      <point x="501" y="-131" type="line"/>
      <point x="1" y="-131" type="line"/>
    </contour>
  </outline>
</glyph>
<glyph name="i" format="2">
  <advance width="235"/>
  <unicode hex="0069"/>
  <outline>
    <contour>
      <point x="83" y="0" type="line"/>
      <point x="148" y="0" type="line"/>
      <point x="273" y="517" type="line"/>
      <point x="208" y="517" type="line"/>
    </contour>
    <contour>
      <point x="274" y="626" type="curve" smooth="yes"/>
      <point x="295" y="626"/>
      <point x="322" y="644"/>
      <point x="322" y="676" type="curve" smooth="yes"/>
      <point x="322" y="702"/>
      <point x="306" y="721"/>
      <point x="280" y="721" type="curve" smooth="yes"/>
      <point x="258" y="721"/>
      <point x="234" y="702"/>
      <point x="234" y="668" type="curve" smooth="yes"/>
      <point x="234" y="643"/>
      <point x="248" y="626"/>
    </contour>
  </outline>
</glyph>
<glyph name="n" format="2">
  <advance width="546"/>
  <unicode hex="006E"/>
  <outline>
    <contour>
      <point x="83" y="0" type="line"/>
      <point x="148" y="0" type="line"/>
      <point x="257" y="453" type="line"/>
      <point x="291" y="461"/>
      <point x="328" y="467"/>
      <point x="363" y="467" type="curve" smooth="yes"/>
      <point x="509" y="467"/>
      <point x="492" y="366"/>
      <point x="461" y="230" type="curve" smooth="yes"/>
      <point x="406" y="0" type="line"/>
      <point x="471" y="0" type="line"/>
      <point x="533" y="257" type="line" smooth="yes"/>
      <point x="570" y="409"/>
      <point x="545" y="527"/>
      <point x="372" y="527" type="curve" smooth="yes"/>
      <point x="315" y="527"/>
      <point x="254" y="514"/>
      <point x="202" y="499" type="curve"/>
    </contour>
  </outline>
</glyph>
<glyph name="z" format="2">
  <advance width="428"/>
  <unicode hex="007A"/>
  <outline>
    <contour>
      <point x="40" y="0" type="line"/>
      <point x="410" y="0" type="line"/>
      <point x="422" y="56" type="line"/>
      <point x="127" y="56" type="line"/>
      <point x="189" y="152"/>
      <point x="431" y="390"/>
      <point x="516" y="466" type="curve"/>
      <point x="528" y="517" type="line"/>
      <point x="175" y="517" type="line"/>
      <point x="163" y="461" type="line"/>
      <point x="432" y="461" type="line"/>
      <point x="337" y="377"/>
      <point x="133" y="176"/>
      <point x="51" y="46" type="curve"/>
    </contour>
  </outline>
</glyph>
<glyph name="asciitilde" format="2">
  <advance width="564"/>
  <unicode hex="007E"/>
  <outline>
    <contour>
      <point x="428" y="210" type="curve" smooth="yes"/>
      <point x="519" y="210"/>
      <point x="566" y="293"/>
      <point x="581" y="336" type="curve"/>
      <point x="533" y="352" type="line"/>
      <point x="525" y="337"/>
      <point x="495" y="270"/>
      <point x="440" y="270" type="curve" smooth="yes"/>
      <point x="367" y="270"/>
      <point x="343" y="363"/>
      <point x="257" y="363" type="curve" smooth="yes"/>
      <point x="169" y="363"/>
      <point x="124" y="282"/>
      <point x="106" y="236" type="curve"/>
      <point x="154" y="220" type="line"/>
      <point x="162" y="235"/>
      <point x="192" y="303"/>
      <point x="247" y="303" type="curve" smooth="yes"/>
      <point x="317" y="303"/>
      <point x="342" y="210"/>
    </contour>
  </outline>
</glyph>
<glyph name="exclamdown" format="2">
  <advance width="266"/>
  <unicode hex="00A1"/>
  <outline>
    <contour>
      <point x="92" y="-185" type="line"/>
      <point x="162" y="-185" type="line"/>
      <point x="208" y="8" type="line" smooth="yes"/>
      <point x="234" y="121"/>
      <point x="248" y="207"/>
      <point x="258" y="295" type="curve"/>
      <point x="222" y="295" type="line"/>
      <point x="196" y="227"/>
      <point x="149" y="53"/>
      <point x="138" y="9" type="curve" smooth="yes"/>
    </contour>
    <contour>
      <point x="275" y="411" type="curve" smooth="yes"/>
      <point x="311" y="411"/>
      <point x="332" y="443"/>
      <point x="332" y="472" type="curve" smooth="yes"/>
      <point x="332" y="497"/>
      <point x="317" y="520"/>
      <point x="282" y="520" type="curve" smooth="yes"/>
      <point x="246" y="520"/>
      <point x="225" y="488"/>
      <point x="225" y="459" type="curve" smooth="yes"/>
      <point x="225" y="434"/>
      <point x="240" y="411"/>
    </contour>
  </outline>
</glyph>
<glyph name="copyright" format="2">
  <advance width="754"/>
  <unicode hex="00A9"/>
  <outline>
    <contour>
      <point x="457" y="-15" type="curve" smooth="yes"/>
      <point x="636" y="-15"/>
      <point x="796" y="119"/>
      <point x="796" y="347" type="curve"/>
      <point x="796" y="575"/>
      <point x="636" y="708"/>
      <point x="457" y="708" type="curve"/>
      <point x="278" y="708"/>
      <point x="118" y="575"/>
      <point x="118" y="347" type="curve" smooth="yes"/>
      <point x="118" y="119"/>
      <point x="278" y="-15"/>
    </contour>
    <contour>
      <point x="462" y="142" type="curve"/>
      <point x="527" y="142"/>
      <point x="573" y="163"/>
      <point x="590" y="173" type="curve"/>
      <point x="573" y="221" type="line"/>
      <point x="558" y="212"/>
      <point x="527" y="195"/>
      <point x="470" y="195" type="curve" smooth="yes"/>
      <point x="389" y="195"/>
      <point x="338" y="250"/>
      <point x="338" y="348" type="curve" smooth="yes"/>
      <point x="338" y="443"/>
      <point x="393" y="498"/>
      <point x="466" y="498" type="curve" smooth="yes"/>
      <point x="519" y="498"/>
      <point x="548" y="482"/>
      <point x="568" y="471" type="curve"/>
      <point x="587" y="516" type="line"/>
      <point x="572" y="527"/>
      <point x="531" y="551"/>
      <point x="466" y="551" type="curve" smooth="yes"/>
      <point x="368" y="551"/>
      <point x="278" y="476"/>
      <point x="278" y="348" type="curve" smooth="yes"/>
      <point x="278" y="217"/>
      <point x="358" y="142"/>
    </contour>
    <contour>
      <point x="457" y="38" type="curve" smooth="yes"/>
      <point x="294" y="38"/>
      <point x="177" y="162"/>
      <point x="177" y="347" type="curve"/>
      <point x="177" y="532"/>
      <point x="294" y="655"/>
      <point x="457" y="655" type="curve" smooth="yes"/>
      <point x="620" y="655"/>
      <point x="737" y="532"/>
      <point x="737" y="347" type="curve"/>
      <point x="737" y="162"/>
      <point x="620" y="38"/>
    </contour>
  </outline>
</glyph>
<glyph name="cedilla" format="2">
  <advance width="336"/>
  <unicode hex="00B8"/>
  <outline>
    <contour>
      <point x="105" y="-187" type="curve" smooth="yes"/>
      <point x="168" y="-187"/>
      <point x="216" y="-156"/>
      <point x="216" y="-102" type="curve" smooth="yes"/>
      <point x="216" y="-70"/>
      <point x="203" y="-55"/>
      <point x="172" y="-38" type="curve"/>
      <point x="182" y="-22"/>
      <point x="202" y="6"/>
      <point x="213" y="20" type="curve"/>
      <point x="166" y="20" type="line"/>
      <point x="156" y="8"/>
      <point x="120" y="-39"/>
      <point x="106" y="-66" type="curve"/>
      <point x="143" y="-81"/>
      <point x="153" y="-90"/>
      <point x="153" y="-110" type="curve" smooth="yes"/>
      <point x="153" y="-132"/>
      <point x="133" y="-141"/>
      <point x="102" y="-141" type="curve" smooth="yes"/>
      <point x="85" y="-141"/>
      <point x="68" y="-138"/>
      <point x="53" y="-132" type="curve"/>
      <point x="35" y="-175" type="line"/>
      <point x="61" y="-185"/>
      <point x="82" y="-187"/>
    </contour>
  </outline>
</glyph>
<glyph name="Oslash" format="2">
  <advance width="748"/>
  <unicode hex="00D8"/>
  <outline>
    <contour>
      <point x="167" y="-29" type="line"/>
      <point x="226" y="38" type="line"/>
      <point x="270" y="2"/>
      <point x="326" y="-15"/>
      <point x="385" y="-15" type="curve" smooth="yes"/>
      <point x="581" y="-15"/>
      <point x="780" y="159"/>
      <point x="780" y="436" type="curve" smooth="yes"/>
      <point x="780" y="511"/>
      <point x="761" y="569"/>
      <point x="730" y="613" type="curve"/>
      <point x="797" y="690" type="line"/>
      <point x="755" y="726" type="line"/>
      <point x="692" y="654" type="line"/>
      <point x="648" y="690"/>
      <point x="592" y="708"/>
      <point x="533" y="708" type="curve" smooth="yes"/>
      <point x="337" y="708"/>
      <point x="138" y="534"/>
      <point x="138" y="258" type="curve" smooth="yes"/>
      <point x="138" y="183"/>
      <point x="156" y="124"/>
      <point x="187" y="80" type="curve"/>
      <point x="124" y="8" type="line"/>
    </contour>
    <contour>
      <point x="391" y="46" type="curve" smooth="yes"/>
      <point x="344" y="46"/>
      <point x="302" y="60"/>
      <point x="270" y="88" type="curve"/>
      <point x="683" y="559" type="line"/>
      <point x="699" y="529"/>
      <point x="708" y="491"/>
      <point x="708" y="446" type="curve" smooth="yes"/>
      <point x="708" y="190"/>
      <point x="553" y="46"/>
    </contour>
    <contour>
      <point x="234" y="134" type="line"/>
      <point x="218" y="164"/>
      <point x="210" y="201"/>
      <point x="210" y="247" type="curve" smooth="yes"/>
      <point x="210" y="503"/>
      <point x="365" y="647"/>
      <point x="527" y="647" type="curve" smooth="yes"/>
      <point x="573" y="647"/>
      <point x="616" y="633"/>
      <point x="648" y="604" type="curve"/>
    </contour>
  </outline>
</glyph>
<glyph name="kgreenlandic" format="2">
  <advance width="504"/>
  <unicode hex="0138"/>
  <outline>
    <contour>
      <point x="83" y="0" type="line"/>
      <point x="148" y="0" type="line"/>
      <point x="214" y="271" type="line"/>
      <point x="296" y="216"/>
      <point x="382" y="124"/>
      <point x="440" y="0" type="curve"/>
      <point x="510" y="0" type="line"/>
      <point x="477" y="90"/>
      <point x="382" y="217"/>
      <point x="290" y="285" type="curve"/>
      <point x="353" y="323"/>
      <point x="512" y="457"/>
      <point x="559" y="517" type="curve"/>
      <point x="480" y="517" type="line"/>
      <point x="438" y="469"/>
      <point x="315" y="362"/>
      <point x="220" y="298" type="curve"/>
      <point x="273" y="517" type="line"/>
      <point x="208" y="517" type="line"/>
    </contour>
  </outline>
</glyph>
<glyph name="uni0163" format="2">
  <advance width="377"/>
  <unicode hex="0163"/>
  <outline>
    <contour>
      <point x="175" y="-187" type="curve" smooth="yes"/>
      <point x="238" y="-187"/>
      <point x="286" y="-156"/>
      <point x="286" y="-102" type="curve" smooth="yes"/>
      <point x="286" y="-70"/>
      <point x="273" y="-55"/>
      <point x="242" y="-38" type="curve"/>
      <point x="246" y="-31"/>
      <point x="252" y="-21"/>
      <point x="259" y="-11" type="curve"/>
      <point x="298" y="-9"/>
      <point x="337" y="2"/>
      <point x="368" y="15" type="curve"/>
      <point x="362" y="74" type="line"/>
      <point x="327" y="58"/>
      <point x="299" y="48"/>
      <point x="257" y="48" type="curve" smooth="yes"/>
      <point x="168" y="48"/>
      <point x="172" y="129"/>
      <point x="192" y="208" type="curve" smooth="yes"/>
      <point x="253" y="461" type="line"/>
      <point x="436" y="461" type="line"/>
      <point x="449" y="517" type="line"/>
      <point x="267" y="517" type="line"/>
      <point x="306" y="681" type="line"/>
      <point x="238" y="669" type="line"/>
      <point x="127" y="208" type="line" smooth="yes"/>
      <point x="102" y="108"/>
      <point x="99" y="6"/>
      <point x="212" y="-10" type="curve"/>
      <point x="199" y="-28"/>
      <point x="184" y="-50"/>
      <point x="176" y="-66" type="curve"/>
      <point x="213" y="-81"/>
      <point x="223" y="-90"/>
      <point x="223" y="-110" type="curve" smooth="yes"/>
      <point x="223" y="-132"/>
      <point x="203" y="-141"/>
      <point x="172" y="-141" type="curve" smooth="yes"/>
      <point x="155" y="-141"/>
      <point x="138" y="-138"/>
      <point x="123" y="-132" type="curve"/>
      <point x="105" y="-175" type="line"/>
      <point x="131" y="-185"/>
      <point x="152" y="-187"/>
    </contour>
  </outline>
</glyph>
<glyph name="longs" format="2">
  <advance width="245"/>
  <unicode hex="017F"/>
  <outline>
    <contour>
      <point x="43" y="-189" type="line"/>
      <point x="112" y="-110"/>
      <point x="140" y="-26"/>
      <point x="171" y="102" type="curve" smooth="yes"/>
      <point x="285" y="571" type="line" smooth="yes"/>
      <point x="313" y="686"/>
      <point x="365" y="719"/>
      <point x="433" y="719" type="curve" smooth="yes"/>
      <point x="466" y="719"/>
      <point x="488" y="713"/>
      <point x="516" y="704" type="curve"/>
      <point x="547" y="756" type="line"/>
      <point x="519" y="767"/>
      <point x="488" y="776"/>
      <point x="443" y="776" type="curve" smooth="yes"/>
      <point x="349" y="776"/>
      <point x="258" y="732"/>
      <point x="220" y="573" type="curve" smooth="yes"/>
      <point x="96" y="58" type="line" smooth="yes"/>
      <point x="74" y="-32"/>
      <point x="53" y="-90"/>
      <point x="-14" y="-180" type="curve"/>
    </contour>
  </outline>
</glyph>
<glyph name="uni0188" format="2">
  <advance width="484"/>
  <unicode hex="0188"/>
  <outline>
    <contour>
      <point x="281" y="-12" type="curve" smooth="yes"/>
      <point x="349" y="-12"/>
      <point x="409" y="8"/>
      <point x="435" y="25" type="curve"/>
      <point x="428" y="84" type="line"/>
      <point x="410" y="71"/>
      <point x="350" y="48"/>
      <point x="293" y="48" type="curve" smooth="yes"/>
      <point x="204" y="48"/>
      <point x="165" y="102"/>
      <point x="165" y="190" type="curve" smooth="yes"/>
      <point x="165" y="339"/>
      <point x="262" y="470"/>
      <point x="396" y="470" type="curve" smooth="yes"/>
      <point x="424" y="470"/>
      <point x="461" y="463"/>
      <point x="492" y="451" type="curve"/>
      <point x="516" y="509" type="line" smooth="yes"/>
      <point x="531" y="546"/>
      <point x="562" y="573"/>
      <point x="601" y="573" type="curve" smooth="yes"/>
      <point x="612" y="573"/>
      <point x="623" y="571"/>
      <point x="635" y="567" type="curve"/>
      <point x="654" y="613" type="line"/>
      <point x="637" y="619"/>
      <point x="619" y="622"/>
      <point x="603" y="622" type="curve" smooth="yes"/>
      <point x="550" y="622"/>
      <point x="503" y="591"/>
      <point x="478" y="541" type="curve" smooth="yes"/>
      <point x="468" y="521" type="line"/>
      <point x="449" y="525"/>
      <point x="431" y="529"/>
      <point x="404" y="529" type="curve" smooth="yes"/>
      <point x="217" y="529"/>
      <point x="98" y="365"/>
      <point x="98" y="183" type="curve" smooth="yes"/>
      <point x="98" y="63"/>
      <point x="160" y="-12"/>
    </contour>
  </outline>
</glyph>
<glyph name="uni0191" format="2">
  <advance width="500"/>
  <unicode hex="0191"/>
  <outline>
    <contour>
      <point x="-12" y="-187" type="curve" smooth="yes"/>
      <point x="118" y="-187"/>
      <point x="138" y="-52"/>
      <point x="152" y="8" type="curve" smooth="yes"/>
      <point x="230" y="331" type="line"/>
      <point x="508" y="331" type="line"/>
      <point x="523" y="390" type="line"/>
      <point x="243" y="390" type="line"/>
      <point x="302" y="634" type="line"/>
      <point x="616" y="634" type="line"/>
      <point x="630" y="693" type="line"/>
      <point x="249" y="693" type="line"/>
      <point x="71" y="-45" type="line" smooth="yes"/>
      <point x="58" y="-97"/>
      <point x="35" y="-130"/>
      <point x="-13" y="-130" type="curve" smooth="yes"/>
      <point x="-26" y="-130"/>
      <point x="-41" y="-128"/>
      <point x="-57" y="-123" type="curve"/>
      <point x="-75" y="-178" type="line"/>
      <point x="-52" y="-184"/>
      <point x="-31" y="-187"/>
    </contour>
  </outline>
</glyph>
<glyph name="uni0196" format="2">
  <advance width="317"/>
  <unicode hex="0196"/>
  <outline>
    <contour>
      <point x="246" y="-15" type="curve" smooth="yes"/>
      <point x="275" y="-15"/>
      <point x="307" y="-11"/>
      <point x="339" y="0" type="curve"/>
      <point x="337" y="58" type="line"/>
      <point x="322" y="53"/>
      <point x="298" y="46"/>
      <point x="259" y="46" type="curve" smooth="yes"/>
      <point x="204" y="46"/>
      <point x="186" y="79"/>
      <point x="186" y="120" type="curve" smooth="yes"/>
      <point x="186" y="136"/>
      <point x="189" y="156"/>
      <point x="193" y="174" type="curve" smooth="yes"/>
      <point x="317" y="693" type="line"/>
      <point x="249" y="693" type="line"/>
      <point x="130" y="198" type="line" smooth="yes"/>
      <point x="122" y="167"/>
      <point x="118" y="137"/>
      <point x="118" y="110" type="curve" smooth="yes"/>
      <point x="118" y="21"/>
      <point x="175" y="-15"/>
    </contour>
  </outline>
</glyph>
<glyph name="uni01A2" format="2">
  <advance width="984"/>
  <unicode hex="01A2"/>
  <outline>
    <contour>
      <point x="385" y="-15" type="curve" smooth="yes"/>
      <point x="581" y="-15"/>
      <point x="780" y="159"/>
      <point x="780" y="436" type="curve" smooth="yes"/>
      <point x="780" y="504"/>
      <point x="764" y="559"/>
      <point x="738" y="601" type="curve"/>
      <point x="770" y="624"/>
      <point x="812" y="648"/>
      <point x="872" y="648" type="curve" smooth="yes"/>
      <point x="942" y="648"/>
      <point x="962" y="615"/>
      <point x="962" y="557" type="curve" smooth="yes"/>
      <point x="962" y="526"/>
      <point x="956" y="487"/>
      <point x="945" y="442" type="curve" smooth="yes"/>
      <point x="838" y="0" type="line"/>
      <point x="906" y="0" type="line"/>
      <point x="1006" y="421" type="line" smooth="yes"/>
      <point x="1018" y="473"/>
      <point x="1030" y="525"/>
      <point x="1030" y="568" type="curve" smooth="yes"/>
      <point x="1030" y="649"/>
      <point x="996" y="708"/>
      <point x="881" y="708" type="curve" smooth="yes"/>
      <point x="857" y="708"/>
      <point x="790" y="702"/>
      <point x="706" y="641" type="curve"/>
      <point x="660" y="686"/>
      <point x="599" y="708"/>
      <point x="533" y="708" type="curve" smooth="yes"/>
      <point x="337" y="708"/>
      <point x="138" y="534"/>
      <point x="138" y="258" type="curve" smooth="yes"/>
      <point x="138" y="72"/>
      <point x="253" y="-15"/>
    </contour>
    <contour>
      <point x="391" y="46" type="curve" smooth="yes"/>
      <point x="291" y="46"/>
      <point x="210" y="111"/>
      <point x="210" y="247" type="curve" smooth="yes"/>
      <point x="210" y="503"/>
      <point x="365" y="647"/>
      <point x="527" y="647" type="curve" smooth="yes"/>
      <point x="627" y="647"/>
      <point x="708" y="582"/>
      <point x="708" y="446" type="curve" smooth="yes"/>
      <point x="708" y="190"/>
      <point x="553" y="46"/>
    </contour>
  </outline>
</glyph>
<glyph name="uni01A4" format="2">
  <advance width="638"/>
  <unicode hex="01A4"/>
  <outline>
    <contour>
      <point x="156" y="0" type="line"/>
      <point x="224" y="0" type="line"/>
      <point x="289" y="268" type="line"/>
      <point x="383" y="268" type="line" smooth="yes"/>
      <point x="599" y="268"/>
      <point x="720" y="375"/>
      <point x="720" y="524" type="curve" smooth="yes"/>
      <point x="720" y="637"/>
      <point x="647" y="700"/>
      <point x="486" y="700" type="curve" smooth="yes"/>
      <point x="287" y="700"/>
      <point x="138" y="687"/>
      <point x="128" y="498" type="curve"/>
      <point x="186" y="503" type="line"/>
      <point x="193" y="564"/>
      <point x="216" y="629"/>
      <point x="308" y="635" type="curve"/>
    </contour>
    <contour>
      <point x="302" y="327" type="line"/>
      <point x="377" y="638" type="line"/>
      <point x="412" y="640"/>
      <point x="439" y="640"/>
      <point x="474" y="640" type="curve" smooth="yes"/>
      <point x="593" y="640"/>
      <point x="648" y="601"/>
      <point x="648" y="515" type="curve" smooth="yes"/>
      <point x="648" y="398"/>
      <point x="554" y="327"/>
      <point x="392" y="327" type="curve" smooth="yes"/>
    </contour>
  </outline>
</glyph>
<glyph name="uni01A8" format="2">
  <advance width="400"/>
  <unicode hex="01A8"/>
  <outline>
    <contour>
      <point x="250" y="-12" type="curve" smooth="yes"/>
      <point x="305" y="-12"/>
      <point x="362" y="1"/>
      <point x="403" y="18" type="curve"/>
      <point x="398" y="79" type="line"/>
      <point x="374" y="66"/>
      <point x="308" y="46"/>
      <point x="250" y="46" type="curve" smooth="yes"/>
      <point x="199" y="46"/>
      <point x="155" y="62"/>
      <point x="155" y="115" type="curve" smooth="yes"/>
      <point x="155" y="268"/>
      <point x="462" y="213"/>
      <point x="462" y="405" type="curve" smooth="yes"/>
      <point x="462" y="494"/>
      <point x="397" y="529"/>
      <point x="314" y="529" type="curve" smooth="yes"/>
      <point x="267" y="529"/>
      <point x="217" y="517"/>
      <point x="179" y="498" type="curve"/>
      <point x="184" y="439" type="line"/>
      <point x="220" y="457"/>
      <point x="271" y="472"/>
      <point x="314" y="472" type="curve" smooth="yes"/>
      <point x="364" y="472"/>
      <point x="396" y="453"/>
      <point x="396" y="404" type="curve" smooth="yes"/>
      <point x="396" y="273"/>
      <point x="88" y="315"/>
      <point x="88" y="107" type="curve" smooth="yes"/>
      <point x="88" y="18"/>
      <point x="166" y="-12"/>
    </contour>
  </outline>
</glyph>
<glyph name="uni01B6" format="2">
  <advance width="428"/>
  <unicode hex="01B6"/>
  <outline>
    <contour>
      <point x="41" y="0" type="line"/>
      <point x="411" y="0" type="line"/>
      <point x="423" y="56" type="line"/>
      <point x="128" y="56" type="line"/>
      <point x="156" y="100"/>
      <point x="222" y="173"/>
      <point x="294" y="248" type="curve"/>
      <point x="454" y="248" type="line"/>
      <point x="467" y="301" type="line"/>
      <point x="345" y="301" type="line"/>
      <point x="413" y="370"/>
      <point x="480" y="433"/>
      <point x="517" y="466" type="curve"/>
      <point x="529" y="517" type="line"/>
      <point x="176" y="517" type="line"/>
      <point x="164" y="461" type="line"/>
      <point x="433" y="461" type="line"/>
      <point x="392" y="424"/>
      <point x="330" y="366"/>
      <point x="266" y="301" type="curve"/>
      <point x="143" y="301" type="line"/>
      <point x="130" y="248" type="line"/>
      <point x="216" y="248" type="line"/>
      <point x="150" y="178"/>
      <point x="89" y="104"/>
      <point x="52" y="46" type="curve"/>
    </contour>
  </outline>
</glyph>
<glyph name="uni01BE" format="2">
  <advance width="429"/>
  <unicode hex="01BE"/>
  <outline>
    <contour>
      <point x="237" y="-12" type="curve" smooth="yes"/>
      <point x="337" y="-12"/>
      <point x="431" y="37"/>
      <point x="431" y="155" type="curve" smooth="yes"/>
      <point x="431" y="297"/>
      <point x="238" y="276"/>
      <point x="238" y="385" type="curve" smooth="yes"/>
      <point x="238" y="396"/>
      <point x="239" y="408"/>
      <point x="243" y="422" type="curve" smooth="yes"/>
      <point x="254" y="462" type="line"/>
      <point x="436" y="462" type="line"/>
      <point x="451" y="517" type="line"/>
      <point x="269" y="517" type="line"/>
      <point x="308" y="681" type="line"/>
      <point x="240" y="669" type="line"/>
      <point x="180" y="422" type="line" smooth="yes"/>
      <point x="176" y="405"/>
      <point x="173" y="388"/>
      <point x="173" y="373" type="curve" smooth="yes"/>
      <point x="173" y="230"/>
      <point x="369" y="247"/>
      <point x="369" y="141" type="curve" smooth="yes"/>
      <point x="369" y="76"/>
      <point x="312" y="46"/>
      <point x="244" y="46" type="curve" smooth="yes"/>
      <point x="198" y="46"/>
      <point x="165" y="56"/>
      <point x="116" y="82" type="curve"/>
      <point x="88" y="23" type="line"/>
      <point x="131" y="-1"/>
      <point x="185" y="-12"/>
    </contour>
  </outline>
</glyph>
<glyph name="uni0220" format="2">
  <advance width="632"/>
  <unicode hex="0220"/>
  <outline>
    <contour>
      <point x="437" y="-185" type="line"/>
      <point x="505" y="-185" type="line"/>
      <point x="651" y="425" type="line" smooth="yes"/>
      <point x="660" y="461"/>
      <point x="664" y="494"/>
      <point x="664" y="525" type="curve" smooth="yes"/>
      <point x="664" y="638"/>
      <point x="600" y="707"/>
      <point x="452" y="707" type="curve" smooth="yes"/>
      <point x="388" y="707"/>
      <point x="315" y="695"/>
      <point x="244" y="677" type="curve"/>
      <point x="83" y="0" type="line"/>
      <point x="150" y="0" type="line"/>
      <point x="301" y="630" type="line"/>
      <point x="358" y="641"/>
      <point x="405" y="647"/>
      <point x="445" y="647" type="curve" smooth="yes"/>
      <point x="560" y="647"/>
      <point x="594" y="590"/>
      <point x="594" y="513" type="curve" smooth="yes"/>
      <point x="594" y="477"/>
      <point x="587" y="437"/>
      <point x="577" y="396" type="curve" smooth="yes"/>
    </contour>
  </outline>
</glyph>
<glyph name="dotlessj" format="2">
  <advance width="235"/>
  <unicode hex="0237"/>
  <outline>
    <contour>
      <point x="-30" y="-188" type="curve" smooth="yes"/>
      <point x="88" y="-188"/>
      <point x="132" y="-116"/>
      <point x="166" y="28" type="curve" smooth="yes"/>
      <point x="283" y="517" type="line"/>
      <point x="218" y="517" type="line"/>
      <point x="99" y="16" type="line" smooth="yes"/>
      <point x="79" y="-70"/>
      <point x="49" y="-131"/>
      <point x="-22" y="-131" type="curve" smooth="yes"/>
      <point x="-47" y="-131"/>
      <point x="-65" y="-126"/>
      <point x="-86" y="-115" type="curve"/>
      <point x="-101" y="-170" type="line"/>
      <point x="-86" y="-179"/>
      <point x="-63" y="-188"/>
    </contour>
  </outline>
</glyph>
<glyph name="uni023C" format="2">
  <advance width="458"/>
  <unicode hex="023C"/>
  <outline>
    <contour>
      <point x="177" y="-81" type="line"/>
      <point x="216" y="-3" type="line"/>
      <point x="236" y="-9"/>
      <point x="257" y="-12"/>
      <point x="281" y="-12" type="curve" smooth="yes"/>
      <point x="349" y="-12"/>
      <point x="412" y="6"/>
      <point x="438" y="23" type="curve"/>
      <point x="431" y="82" type="line"/>
      <point x="413" y="69"/>
      <point x="350" y="48"/>
      <point x="293" y="48" type="curve" smooth="yes"/>
      <point x="275" y="48"/>
      <point x="260" y="50"/>
      <point x="246" y="54" type="curve"/>
      <point x="455" y="462" type="line"/>
      <point x="471" y="458"/>
      <point x="488" y="453"/>
      <point x="503" y="445" type="curve"/>
      <point x="530" y="504" type="line"/>
      <point x="515" y="511"/>
      <point x="499" y="516"/>
      <point x="484" y="520" type="curve"/>
      <point x="524" y="597" type="line"/>
      <point x="478" y="613" type="line"/>
      <point x="434" y="528" type="line"/>
      <point x="427" y="529"/>
      <point x="420" y="529"/>
      <point x="414" y="529" type="curve" smooth="yes"/>
      <point x="214" y="529"/>
      <point x="98" y="365"/>
      <point x="98" y="183" type="curve" smooth="yes"/>
      <point x="98" y="107"/>
      <point x="123" y="48"/>
      <point x="172" y="16" type="curve"/>
      <point x="131" y="-65" type="line"/>
    </contour>
    <contour>
      <point x="203" y="77" type="line"/>
      <point x="177" y="102"/>
      <point x="165" y="140"/>
      <point x="165" y="190" type="curve" smooth="yes"/>
      <point x="165" y="339"/>
      <point x="259" y="469"/>
      <point x="404" y="469" type="curve"/>
    </contour>
  </outline>
</glyph>
<glyph name="uni0292" format="2">
  <advance width="396"/>
  <unicode hex="0292"/>
  <outline>
    <contour>
      <point x="131" y="-185" type="curve" smooth="yes"/>
      <point x="269" y="-185"/>
      <point x="395" y="-112"/>
      <point x="395" y="52" type="curve" smooth="yes"/>
      <point x="395" y="138"/>
      <point x="349" y="202"/>
      <point x="226" y="216" type="curve"/>
      <point x="313" y="288"/>
      <point x="412" y="397"/>
      <point x="466" y="469" type="curve"/>
      <point x="478" y="517" type="line"/>
      <point x="134" y="517" type="line"/>
      <point x="122" y="462" type="line"/>
      <point x="398" y="462" type="line"/>
      <point x="344" y="401"/>
      <point x="241" y="292"/>
      <point x="153" y="216" type="curve"/>
      <point x="143" y="167" type="line"/>
      <point x="162" y="167" type="line"/>
      <point x="275" y="164"/>
      <point x="327" y="131"/>
      <point x="327" y="42" type="curve" smooth="yes"/>
      <point x="327" y="-78"/>
      <point x="242" y="-126"/>
      <point x="130" y="-126" type="curve" smooth="yes"/>
      <point x="84" y="-126"/>
      <point x="38" y="-116"/>
      <point x="0" y="-98" type="curve"/>
      <point x="-22" y="-153" type="line"/>
      <point x="23" y="-175"/>
      <point x="78" y="-185"/>
    </contour>
  </outline>
</glyph>
<glyph name="dotaccent" format="2">
  <advance width="336"/>
  <unicode hex="02D9"/>
  <outline>
    <contour>
      <point x="316" y="621" type="curve" smooth="yes"/>
      <point x="351" y="621"/>
      <point x="371" y="652"/>
      <point x="371" y="680" type="curve" smooth="yes"/>
      <point x="371" y="704"/>
      <point x="357" y="726"/>
      <point x="323" y="726" type="curve" smooth="yes"/>
      <point x="288" y="726"/>
      <point x="268" y="695"/>
      <point x="268" y="667" type="curve" smooth="yes"/>
      <point x="268" y="643"/>
      <point x="282" y="621"/>
    </contour>
  </outline>
</glyph>
<glyph name="ogonek" format="2">
  <advance width="336"/>
  <unicode hex="02DB"/>
  <outline>
    <contour>
      <point x="128" y="-186" type="curve" smooth="yes"/>
      <point x="146" y="-186"/>
      <point x="163" y="-183"/>
      <point x="181" y="-179" type="curve"/>
      <point x="188" y="-130" type="line"/>
      <point x="179" y="-132"/>
      <point x="167" y="-134"/>
      <point x="155" y="-134" type="curve" smooth="yes"/>
      <point x="133" y="-134"/>
      <point x="111" y="-128"/>
      <point x="111" y="-107" type="curve" smooth="yes"/>
      <point x="111" y="-80"/>
      <point x="139" y="-46"/>
      <point x="217" y="4" type="curve"/>
      <point x="150" y="4" type="line"/>
      <point x="106" y="-26"/>
      <point x="49" y="-73"/>
      <point x="49" y="-122" type="curve" smooth="yes"/>
      <point x="49" y="-172"/>
      <point x="86" y="-186"/>
    </contour>
  </outline>
</glyph>
<glyph name="Xi" format="2">
  <advance width="513"/>
  <unicode hex="039E"/>
  <outline>
    <contour>
      <point x="38" y="0" type="line"/>
      <point x="478" y="0" type="line"/>
      <point x="492" y="59" type="line"/>
      <point x="53" y="59" type="line"/>
    </contour>
    <contour>
      <point x="168" y="334" type="line"/>
      <point x="507" y="334" type="line"/>
      <point x="521" y="393" type="line"/>
      <point x="182" y="393" type="line"/>
    </contour>
    <contour>
      <point x="199" y="634" type="line"/>
      <point x="621" y="634" type="line"/>
      <point x="635" y="693" type="line"/>
      <point x="213" y="693" type="line"/>
    </contour>
  </outline>
</glyph>
<glyph name="zeta" format="2">
  <advance width="418"/>
  <unicode hex="03B6"/>
  <outline>
    <contour>
      <point x="332" y="-190" type="line"/>
      <point x="383" y="-149"/>
      <point x="412" y="-79"/>
      <point x="412" y="-37" type="curve" smooth="yes"/>
      <point x="412" y="33"/>
      <point x="356" y="52"/>
      <point x="297" y="69" type="curve" smooth="yes"/>
      <point x="228" y="89"/>
      <point x="153" y="105"/>
      <point x="153" y="193" type="curve" smooth="yes"/>
      <point x="153" y="380"/>
      <point x="452" y="623"/>
      <point x="578" y="717" type="curve"/>
      <point x="590" y="769" type="line"/>
      <point x="267" y="769" type="line"/>
      <point x="254" y="714" type="line"/>
      <point x="492" y="714" type="line"/>
      <point x="375" y="621"/>
      <point x="88" y="415"/>
      <point x="88" y="189" type="curve" smooth="yes"/>
      <point x="88" y="52"/>
      <point x="195" y="39"/>
      <point x="272" y="18" type="curve" smooth="yes"/>
      <point x="314" y="6"/>
      <point x="347" y="-9"/>
      <point x="347" y="-50" type="curve" smooth="yes"/>
      <point x="347" y="-93"/>
      <point x="320" y="-130"/>
      <point x="283" y="-163" type="curve"/>
    </contour>
  </outline>
</glyph>
<glyph name="afii10024" format="2">
  <advance width="776"/>
  <unicode hex="0416"/>
  <outline>
    <contour>
      <point x="10" y="0" type="curve"/>
      <point x="84" y="0" type="line"/>
      <point x="179" y="126"/>
      <point x="334" y="283"/>
      <point x="428" y="344" type="curve"/>
      <point x="345" y="0" type="line"/>
      <point x="409" y="0" type="line"/>
      <point x="493" y="344" type="line"/>
      <point x="558" y="280"/>
      <point x="662" y="110"/>
      <point x="695" y="0" type="curve"/>
      <point x="770" y="0" type="line"/>
      <point x="724" y="116"/>
      <point x="667" y="242"/>
      <point x="567" y="359" type="curve"/>
      <point x="671" y="446"/>
      <point x="862" y="631"/>
      <point x="916" y="693" type="curve"/>
      <point x="839" y="693" type="line"/>
      <point x="777" y="626"/>
      <point x="629" y="479"/>
      <point x="498" y="368" type="curve"/>
      <point x="576" y="693" type="line"/>
      <point x="512" y="693" type="line"/>
      <point x="434" y="368" type="line"/>
      <point x="376" y="465"/>
      <point x="311" y="586"/>
      <point x="254" y="693" type="curve"/>
      <point x="178" y="693" type="line"/>
      <point x="239" y="584"/>
      <point x="299" y="476"/>
      <point x="363" y="367" type="curve"/>
      <point x="219" y="261"/>
      <point x="86" y="118"/>
    </contour>
  </outline>
</glyph>
<glyph name="afii10042" format="2">
  <advance width="924"/>
  <unicode hex="0428"/>
  <outline>
    <contour>
      <point x="83" y="0" type="line"/>
      <point x="846" y="0" type="line"/>
      <point x="1011" y="693" type="line"/>
      <point x="943" y="693" type="line"/>
      <point x="791" y="59" type="line"/>
      <point x="512" y="59" type="line"/>
      <point x="664" y="693" type="line"/>
      <point x="596" y="693" type="line"/>
      <point x="444" y="59" type="line"/>
      <point x="165" y="59" type="line"/>
      <point x="317" y="693" type="line"/>
      <point x="249" y="693" type="line"/>
    </contour>
  </outline>
</glyph>
<glyph name="afii10072" format="2">
  <advance width="825"/>
  <unicode hex="0436"/>
  <outline>
    <contour>
      <point x="92" y="-11" type="curve" smooth="yes"/>
      <point x="195" y="-11"/>
      <point x="295" y="65"/>
      <point x="325" y="241" type="curve"/>
      <point x="438" y="241" type="line"/>
      <point x="380" y="0" type="line"/>
      <point x="445" y="0" type="line"/>
      <point x="503" y="241" type="line"/>
      <point x="620" y="241" type="line"/>
      <point x="617" y="215"/>
      <point x="616" y="189"/>
      <point x="616" y="163" type="curve" smooth="yes"/>
      <point x="616" y="69"/>
      <point x="658" y="-11"/>
      <point x="752" y="-11" type="curve" smooth="yes"/>
      <point x="784" y="-11"/>
      <point x="813" y="-3"/>
      <point x="822" y="1" type="curve"/>
      <point x="818" y="55" type="line"/>
      <point x="807" y="50"/>
      <point x="797" y="47"/>
      <point x="769" y="47" type="curve" smooth="yes"/>
      <point x="687" y="47"/>
      <point x="678" y="110"/>
      <point x="678" y="173" type="curve" smooth="yes"/>
      <point x="678" y="303"/>
      <point x="723" y="467"/>
      <point x="858" y="467" type="curve" smooth="yes"/>
      <point x="875" y="467"/>
      <point x="884" y="465"/>
      <point x="898" y="460" type="curve"/>
      <point x="917" y="516" type="line"/>
      <point x="902" y="523"/>
      <point x="883" y="526"/>
      <point x="866" y="526" type="curve" smooth="yes"/>
      <point x="730" y="526"/>
      <point x="657" y="423"/>
      <point x="629" y="296" type="curve"/>
      <point x="516" y="296" type="line"/>
      <point x="569" y="517" type="line"/>
      <point x="504" y="517" type="line"/>
      <point x="451" y="296" type="line"/>
      <point x="331" y="296" type="line"/>
      <point x="333" y="314"/>
      <point x="334" y="334"/>
      <point x="334" y="355" type="curve" smooth="yes"/>
      <point x="334" y="456"/>
      <point x="294" y="526"/>
      <point x="206" y="526" type="curve" smooth="yes"/>
      <point x="189" y="526"/>
      <point x="169" y="523"/>
      <point x="147" y="517" type="curve"/>
      <point x="152" y="462" type="line"/>
      <point x="167" y="466"/>
      <point x="180" y="468"/>
      <point x="191" y="468" type="curve" smooth="yes"/>
      <point x="256" y="468"/>
      <point x="272" y="407"/>
      <point x="272" y="346" type="curve" smooth="yes"/>
      <point x="272" y="190"/>
      <point x="219" y="48"/>
      <point x="91" y="48" type="curve" smooth="yes"/>
      <point x="74" y="48"/>
      <point x="59" y="49"/>
      <point x="41" y="59" type="curve"/>
      <point x="23" y="2" type="line"/>
      <point x="45" y="-7"/>
      <point x="68" y="-11"/>
    </contour>
  </outline>
</glyph>
<glyph name="uni0475" format="2">
  <advance width="499"/>
  <unicode hex="0475"/>
  <outline>
    <contour>
      <point x="195" y="0" type="curve"/>
      <point x="261" y="0" type="line"/>
      <point x="494" y="397" type="line" smooth="yes"/>
      <point x="524" y="448"/>
      <point x="545" y="471"/>
      <point x="583" y="471" type="curve" smooth="yes"/>
      <point x="595" y="471"/>
      <point x="607" y="469"/>
      <point x="623" y="462" type="curve"/>
      <point x="646" y="514" type="line"/>
      <point x="621" y="524"/>
      <point x="601" y="527"/>
      <point x="582" y="527" type="curve" smooth="yes"/>
      <point x="509" y="527"/>
      <point x="475" y="480"/>
      <point x="438" y="414" type="curve" smooth="yes"/>
      <point x="245" y="70" type="line"/>
      <point x="215" y="186"/>
      <point x="194" y="374"/>
      <point x="192" y="517" type="curve"/>
      <point x="128" y="517" type="line"/>
      <point x="132" y="332"/>
      <point x="164" y="141"/>
    </contour>
  </outline>
</glyph>
<glyph name="uni048B" format="2">
  <advance width="552"/>
  <unicode hex="048B"/>
  <outline>
    <contour>
      <point x="416" y="-166" type="line"/>
      <point x="447" y="-144"/>
      <point x="539" y="-62"/>
      <point x="561" y="56" type="curve"/>
      <point x="454" y="62"/>
      <point x="465" y="116"/>
      <point x="485" y="197" type="curve" smooth="yes"/>
      <point x="564" y="517" type="line"/>
      <point x="499" y="517" type="line"/>
      <point x="432" y="247" type="line" smooth="yes"/>
      <point x="421" y="205"/>
      <point x="406" y="145"/>
      <point x="408" y="109" type="curve"/>
      <point x="368" y="69"/>
      <point x="314" y="48"/>
      <point x="256" y="48" type="curve" smooth="yes"/>
      <point x="125" y="48"/>
      <point x="159" y="170"/>
      <point x="188" y="289" type="curve" smooth="yes"/>
      <point x="243" y="517" type="line"/>
      <point x="178" y="517" type="line"/>
      <point x="116" y="260" type="line" smooth="yes"/>
      <point x="81" y="120"/>
      <point x="82" y="-12"/>
      <point x="248" y="-12" type="curve" smooth="yes"/>
      <point x="351" y="-12"/>
      <point x="414" y="35"/>
      <point x="429" y="53" type="curve"/>
      <point x="441" y="34"/>
      <point x="461" y="15"/>
      <point x="487" y="9" type="curve"/>
      <point x="465" y="-57"/>
      <point x="396" y="-120"/>
      <point x="378" y="-133" type="curve"/>
    </contour>
    <contour>
      <point x="394" y="605" type="curve" smooth="yes"/>
      <point x="476" y="605"/>
      <point x="524" y="648"/>
      <point x="555" y="724" type="curve"/>
      <point x="505" y="738" type="line"/>
      <point x="487" y="693"/>
      <point x="453" y="661"/>
      <point x="408" y="661" type="curve" smooth="yes"/>
      <point x="352" y="661"/>
      <point x="333" y="693"/>
      <point x="335" y="738" type="curve"/>
      <point x="279" y="724" type="line"/>
      <point x="274" y="648"/>
      <point x="320" y="605"/>
    </contour>
  </outline>
</glyph>
<glyph name="uni0498" format="2">
  <advance width="520"/>
  <unicode hex="0498"/>
  <outline>
    <contour>
      <point x="189" y="-187" type="curve" smooth="yes"/>
      <point x="252" y="-187"/>
      <point x="300" y="-156"/>
      <point x="300" y="-102" type="curve" smooth="yes"/>
      <point x="300" y="-70"/>
      <point x="287" y="-55"/>
      <point x="256" y="-38" type="curve"/>
      <point x="261" y="-30"/>
      <point x="267" y="-21"/>
      <point x="272" y="-13" type="curve"/>
      <point x="406" y="-1"/>
      <point x="523" y="59"/>
      <point x="523" y="225" type="curve" smooth="yes"/>
      <point x="523" y="314"/>
      <point x="464" y="354"/>
      <point x="406" y="372" type="curve"/>
      <point x="478" y="392"/>
      <point x="572" y="448"/>
      <point x="572" y="554" type="curve" smooth="yes"/>
      <point x="572" y="664"/>
      <point x="491" y="708"/>
      <point x="378" y="708" type="curve" smooth="yes"/>
      <point x="319" y="708"/>
      <point x="227" y="683"/>
      <point x="206" y="667" type="curve"/>
      <point x="216" y="614" type="line"/>
      <point x="239" y="624"/>
      <point x="284" y="649"/>
      <point x="378" y="649" type="curve" smooth="yes"/>
      <point x="476" y="649"/>
      <point x="502" y="607"/>
      <point x="502" y="552" type="curve" smooth="yes"/>
      <point x="502" y="453"/>
      <point x="395" y="397"/>
      <point x="291" y="397" type="curve" smooth="yes"/>
      <point x="237" y="397" type="line"/>
      <point x="223" y="339" type="line"/>
      <point x="265" y="339" type="line" smooth="yes"/>
      <point x="364" y="339"/>
      <point x="453" y="319"/>
      <point x="453" y="220" type="curve" smooth="yes"/>
      <point x="453" y="89"/>
      <point x="349" y="44"/>
      <point x="226" y="44" type="curve" smooth="yes"/>
      <point x="143" y="44"/>
      <point x="88" y="77"/>
      <point x="71" y="89" type="curve"/>
      <point x="38" y="30" type="line"/>
      <point x="54" y="18"/>
      <point x="117" y="-15"/>
      <point x="222" y="-15" type="curve"/>
      <point x="210" y="-32"/>
      <point x="197" y="-52"/>
      <point x="190" y="-66" type="curve"/>
      <point x="227" y="-81"/>
      <point x="237" y="-90"/>
      <point x="237" y="-110" type="curve" smooth="yes"/>
      <point x="237" y="-132"/>
      <point x="217" y="-141"/>
      <point x="186" y="-141" type="curve" smooth="yes"/>
      <point x="169" y="-141"/>
      <point x="152" y="-138"/>
      <point x="137" y="-132" type="curve"/>
      <point x="119" y="-175" type="line"/>
      <point x="145" y="-185"/>
      <point x="166" y="-187"/>
    </contour>
  </outline>
</glyph>
<glyph name="uni0499" format="2">
  <advance width="415"/>
  <unicode hex="0499"/>
  <outline>
    <contour>
      <point x="141" y="-187" type="curve" smooth="yes"/>
      <point x="204" y="-187"/>
      <point x="252" y="-156"/>
      <point x="252" y="-102" type="curve" smooth="yes"/>
      <point x="252" y="-70"/>
      <point x="239" y="-55"/>
      <point x="208" y="-38" type="curve"/>
      <point x="214" y="-28"/>
      <point x="221" y="-18"/>
      <point x="227" y="-8" type="curve"/>
      <point x="334" y="6"/>
      <point x="411" y="62"/>
      <point x="411" y="173" type="curve" smooth="yes"/>
      <point x="411" y="217"/>
      <point x="385" y="255"/>
      <point x="337" y="272" type="curve"/>
      <point x="410" y="297"/>
      <point x="447" y="344"/>
      <point x="447" y="404" type="curve" smooth="yes"/>
      <point x="447" y="498"/>
      <point x="369" y="528"/>
      <point x="285" y="528" type="curve" smooth="yes"/>
      <point x="238" y="528"/>
      <point x="189" y="518"/>
      <point x="152" y="506" type="curve"/>
      <point x="157" y="448" type="line"/>
      <point x="188" y="462"/>
      <point x="237" y="470"/>
      <point x="284" y="470" type="curve" smooth="yes"/>
      <point x="336" y="470"/>
      <point x="382" y="455"/>
      <point x="382" y="406" type="curve" smooth="yes"/>
      <point x="382" y="315"/>
      <point x="295" y="299"/>
      <point x="235" y="299" type="curve" smooth="yes"/>
      <point x="189" y="299" type="line"/>
      <point x="176" y="244" type="line"/>
      <point x="221" y="244" type="line" smooth="yes"/>
      <point x="269" y="244"/>
      <point x="346" y="235"/>
      <point x="346" y="169" type="curve" smooth="yes"/>
      <point x="346" y="71"/>
      <point x="254" y="46"/>
      <point x="181" y="46" type="curve" smooth="yes"/>
      <point x="106" y="46"/>
      <point x="75" y="62"/>
      <point x="58" y="69" type="curve"/>
      <point x="38" y="11" type="line"/>
      <point x="57" y="2"/>
      <point x="108" y="-12"/>
      <point x="177" y="-12" type="curve"/>
      <point x="164" y="-30"/>
      <point x="150" y="-51"/>
      <point x="142" y="-66" type="curve"/>
      <point x="179" y="-81"/>
      <point x="189" y="-90"/>
      <point x="189" y="-110" type="curve" smooth="yes"/>
      <point x="189" y="-132"/>
      <point x="169" y="-141"/>
      <point x="138" y="-141" type="curve" smooth="yes"/>
      <point x="121" y="-141"/>
      <point x="104" y="-138"/>
      <point x="89" y="-132" type="curve"/>
      <point x="71" y="-175" type="line"/>
      <point x="97" y="-185"/>
      <point x="118" y="-187"/>
    </contour>
  </outline>
</glyph>
<glyph name="uni04B0" format="2">
  <advance width="555"/>
  <unicode hex="04B0"/>
  <outline>
    <contour>
      <point x="244" y="0" type="line"/>
      <point x="312" y="0" type="line"/>
      <point x="364" y="223" type="line"/>
      <point x="501" y="223" type="line"/>
      <point x="514" y="277" type="line"/>
      <point x="375" y="277" type="line"/>
      <point x="500" y="419"/>
      <point x="623" y="571"/>
      <point x="715" y="693" type="curve"/>
      <point x="634" y="693" type="line"/>
      <point x="566" y="586"/>
      <point x="450" y="447"/>
      <point x="358" y="345" type="curve"/>
      <point x="316" y="450"/>
      <point x="281" y="579"/>
      <point x="254" y="693" type="curve"/>
      <point x="180" y="693" type="line"/>
      <point x="220" y="551"/>
      <point x="263" y="413"/>
      <point x="311" y="277" type="curve"/>
      <point x="174" y="277" type="line"/>
      <point x="161" y="223" type="line"/>
      <point x="296" y="223" type="line"/>
    </contour>
  </outline>
</glyph>
<glyph name="uni04B9" format="2">
  <advance width="490"/>
  <unicode hex="04B9"/>
  <outline>
    <contour>
      <point x="353" y="0" type="line"/>
      <point x="418" y="0" type="line"/>
      <point x="542" y="517" type="line"/>
      <point x="477" y="517" type="line"/>
      <point x="418" y="273" type="line"/>
      <point x="397" y="265"/>
      <point x="362" y="256"/>
      <point x="317" y="252" type="curve"/>
      <point x="339" y="344" type="line"/>
      <point x="285" y="344" type="line"/>
      <point x="262" y="251" type="line"/>
      <point x="206" y="255"/>
      <point x="184" y="280"/>
      <point x="184" y="323" type="curve" smooth="yes"/>
      <point x="184" y="339"/>
      <point x="187" y="358"/>
      <point x="193" y="380" type="curve" smooth="yes"/>
      <point x="227" y="517" type="line"/>
      <point x="162" y="517" type="line"/>
      <point x="125" y="365" type="line" smooth="yes"/>
      <point x="120" y="346"/>
      <point x="118" y="328"/>
      <point x="118" y="312" type="curve" smooth="yes"/>
      <point x="118" y="241"/>
      <point x="163" y="201"/>
      <point x="249" y="194" type="curve"/>
      <point x="226" y="98" type="line"/>
      <point x="280" y="98" type="line"/>
      <point x="303" y="194" type="line"/>
      <point x="348" y="198"/>
      <point x="392" y="210"/>
      <point x="405" y="219" type="curve"/>
    </contour>
  </outline>
</glyph>
<glyph name="uni04BD" format="2">
  <advance width="608"/>
  <unicode hex="04BD"/>
  <outline>
    <contour>
      <point x="415" y="-12" type="curve" smooth="yes"/>
      <point x="470" y="-12"/>
      <point x="528" y="3"/>
      <point x="573" y="28" type="curve"/>
      <point x="566" y="88" type="line"/>
      <point x="524" y="61"/>
      <point x="474" y="48"/>
      <point x="428" y="48" type="curve" smooth="yes"/>
      <point x="307" y="48"/>
      <point x="278" y="110"/>
      <point x="282" y="207" type="curve"/>
      <point x="508" y="217"/>
      <point x="660" y="247"/>
      <point x="660" y="396" type="curve" smooth="yes"/>
      <point x="660" y="476"/>
      <point x="608" y="529"/>
      <point x="515" y="529" type="curve" smooth="yes"/>
      <point x="359" y="529"/>
      <point x="259" y="409"/>
      <point x="228" y="271" type="curve"/>
      <point x="180" y="280"/>
      <point x="156" y="307"/>
      <point x="156" y="349" type="curve" smooth="yes"/>
      <point x="156" y="364"/>
      <point x="159" y="383"/>
      <point x="167" y="401" type="curve"/>
      <point x="115" y="408" type="line"/>
      <point x="103" y="380"/>
      <point x="98" y="355"/>
      <point x="98" y="333" type="curve" smooth="yes"/>
      <point x="98" y="265"/>
      <point x="148" y="226"/>
      <point x="220" y="213" type="curve"/>
      <point x="208" y="73"/>
      <point x="260" y="-12"/>
    </contour>
    <contour>
      <point x="292" y="266" type="curve"/>
      <point x="320" y="376"/>
      <point x="402" y="470"/>
      <point x="509" y="470" type="curve" smooth="yes"/>
      <point x="559" y="470"/>
      <point x="594" y="444"/>
      <point x="594" y="392" type="curve" smooth="yes"/>
      <point x="594" y="315"/>
      <point x="520" y="271"/>
    </contour>
  </outline>
</glyph>
<glyph name="uni04C5" format="2">
  <advance width="628"/>
  <unicode hex="04C5"/>
  <outline>
    <contour>
      <point x="452" y="-188" type="line"/>
      <point x="540" y="-138"/>
      <point x="611" y="-40"/>
      <point x="619" y="59" type="curve"/>
      <point x="553" y="59" type="line"/>
      <point x="706" y="693" type="line"/>
      <point x="353" y="693" type="line"/>
      <point x="338" y="630" type="line" smooth="yes"/>
      <point x="295" y="453"/>
      <point x="265" y="333"/>
      <point x="228" y="247" type="curve" smooth="yes"/>
      <point x="164" y="98"/>
      <point x="107" y="66"/>
      <point x="18" y="50" type="curve"/>
      <point x="24" y="-7" type="line"/>
      <point x="203" y="6"/>
      <point x="268" y="160"/>
      <point x="295" y="228" type="curve" smooth="yes"/>
      <point x="342" y="346"/>
      <point x="378" y="485"/>
      <point x="406" y="597" type="curve" smooth="yes"/>
      <point x="415" y="634" type="line"/>
      <point x="623" y="634" type="line"/>
      <point x="471" y="0" type="line"/>
      <point x="535" y="0" type="line"/>
      <point x="517" y="-66"/>
      <point x="460" y="-119"/>
      <point x="411" y="-153" type="curve"/>
    </contour>
  </outline>
</glyph>
<glyph name="uni04F7" format="2">
  <advance width="380"/>
  <unicode hex="04F7"/>
  <outline>
    <contour>
      <point x="276" y="-143" type="line"/>
      <point x="339" y="-143" type="line"/>
      <point x="391" y="70" type="line"/>
      <point x="366" y="59"/>
      <point x="291" y="48"/>
      <point x="236" y="48" type="curve" smooth="yes"/>
      <point x="180" y="48"/>
      <point x="130" y="64"/>
      <point x="130" y="115" type="curve" smooth="yes"/>
      <point x="130" y="190"/>
      <point x="199" y="215"/>
      <point x="272" y="241" type="curve" smooth="yes"/>
      <point x="354" y="271"/>
      <point x="442" y="301"/>
      <point x="442" y="405" type="curve" smooth="yes"/>
      <point x="442" y="495"/>
      <point x="372" y="529"/>
      <point x="294" y="529" type="curve" smooth="yes"/>
      <point x="250" y="529"/>
      <point x="202" y="518"/>
      <point x="163" y="500" type="curve"/>
      <point x="168" y="441" type="line"/>
      <point x="193" y="453"/>
      <point x="246" y="469"/>
      <point x="293" y="469" type="curve" smooth="yes"/>
      <point x="339" y="469"/>
      <point x="380" y="453"/>
      <point x="380" y="404" type="curve" smooth="yes"/>
      <point x="380" y="342"/>
      <point x="320" y="319"/>
      <point x="252" y="295" type="curve" smooth="yes"/>
      <point x="166" y="264"/>
      <point x="68" y="230"/>
      <point x="68" y="107" type="curve" smooth="yes"/>
      <point x="68" y="19"/>
      <point x="143" y="-12"/>
      <point x="234" y="-12" type="curve" smooth="yes"/>
      <point x="258" y="-12"/>
      <point x="284" y="-9"/>
      <point x="310" y="-4" type="curve"/>
    </contour>
  </outline>
</glyph>
<glyph name="uni1FC1" format="2">
  <advance width="298"/>
  <unicode hex="1FC1"/>
  <outline>
    <contour>
      <point x="241" y="741" type="curve"/>
      <point x="284" y="741" type="line"/>
      <point x="290" y="758"/>
      <point x="310" y="811"/>
      <point x="379" y="811" type="curve" smooth="yes"/>
      <point x="416" y="811"/>
      <point x="447" y="800"/>
      <point x="447" y="755" type="curve" smooth="yes"/>
      <point x="447" y="751"/>
      <point x="447" y="746"/>
      <point x="446" y="741" type="curve"/>
      <point x="489" y="741" type="line"/>
      <point x="492" y="752"/>
      <point x="493" y="763"/>
      <point x="493" y="773" type="curve" smooth="yes"/>
      <point x="493" y="829"/>
      <point x="451" y="865"/>
      <point x="388" y="865" type="curve" smooth="yes"/>
      <point x="309" y="865"/>
      <point x="251" y="813"/>
    </contour>
    <contour>
      <point x="246" y="594" type="curve" smooth="yes"/>
      <point x="278" y="594"/>
      <point x="296" y="623"/>
      <point x="296" y="648" type="curve" smooth="yes"/>
      <point x="296" y="670"/>
      <point x="283" y="690"/>
      <point x="252" y="690" type="curve" smooth="yes"/>
      <point x="220" y="690"/>
      <point x="202" y="661"/>
      <point x="202" y="636" type="curve" smooth="yes"/>
      <point x="202" y="614"/>
      <point x="215" y="594"/>
    </contour>
    <contour>
      <point x="438" y="594" type="curve" smooth="yes"/>
      <point x="470" y="594"/>
      <point x="488" y="623"/>
      <point x="488" y="648" type="curve" smooth="yes"/>
      <point x="488" y="670"/>
      <point x="475" y="690"/>
      <point x="444" y="690" type="curve" smooth="yes"/>
      <point x="412" y="690"/>
      <point x="394" y="661"/>
      <point x="394" y="636" type="curve" smooth="yes"/>
      <point x="394" y="614"/>
      <point x="407" y="594"/>
    </contour>
  </outline>
</glyph>
<glyph name="uni1FCE" format="2">
  <advance width="281"/>
  <unicode hex="1FCE"/>
  <outline>
    <contour>
      <point x="361" y="576" type="line"/>
      <point x="509" y="735" type="line"/>
      <point x="465" y="776" type="line"/>
      <point x="326" y="607" type="line"/>
    </contour>
    <contour>
      <point x="182" y="575" type="line"/>
      <point x="283" y="634"/>
      <point x="325" y="685"/>
      <point x="325" y="727" type="curve" smooth="yes"/>
      <point x="325" y="752"/>
      <point x="309" y="776"/>
      <point x="277" y="776" type="curve" smooth="yes"/>
      <point x="251" y="776"/>
      <point x="223" y="757"/>
      <point x="223" y="725" type="curve" smooth="yes"/>
      <point x="223" y="709"/>
      <point x="231" y="692"/>
      <point x="248" y="680" type="curve"/>
      <point x="229" y="655"/>
      <point x="200" y="631"/>
      <point x="159" y="604" type="curve"/>
    </contour>
  </outline>
</glyph>
<glyph name="zerosuperior" format="2">
  <advance width="363"/>
  <unicode hex="2070"/>
  <outline>
    <contour>
      <point x="259" y="308" type="curve" smooth="yes"/>
      <point x="347" y="308"/>
      <point x="453" y="408"/>
      <point x="453" y="584" type="curve" smooth="yes"/>
      <point x="453" y="670"/>
      <point x="395" y="708"/>
      <point x="339" y="708" type="curve" smooth="yes"/>
      <point x="251" y="708"/>
      <point x="145" y="608"/>
      <point x="145" y="432" type="curve" smooth="yes"/>
      <point x="145" y="346"/>
      <point x="203" y="308"/>
    </contour>
    <contour>
      <point x="265" y="357" type="curve" smooth="yes"/>
      <point x="218" y="357"/>
      <point x="202" y="388"/>
      <point x="202" y="443" type="curve" smooth="yes"/>
      <point x="202" y="511"/>
      <point x="241" y="659"/>
      <point x="333" y="659" type="curve" smooth="yes"/>
      <point x="380" y="659"/>
      <point x="396" y="628"/>
      <point x="396" y="573" type="curve" smooth="yes"/>
      <point x="396" y="505"/>
      <point x="357" y="357"/>
    </contour>
  </outline>
</glyph>
<glyph name="minus" format="2">
  <advance width="564"/>
  <unicode hex="2212"/>
  <outline>
    <contour>
      <point x="131" y="261" type="line"/>
      <point x="560" y="261" type="line"/>
      <point x="573" y="317" type="line"/>
      <point x="144" y="317" type="line"/>
    </contour>
  </outline>
</glyph>
<glyph name="lessequal" format="2">
  <advance width="564"/>
  <unicode hex="2264"/>
  <outline>
    <contour>
      <point x="521" y="155" type="line"/>
      <point x="553" y="209" type="line"/>
      <point x="232" y="357" type="line"/>
      <point x="629" y="507" type="line"/>
      <point x="624" y="568" type="line"/>
      <point x="168" y="391" type="line"/>
      <point x="154" y="333" type="line"/>
    </contour>
    <contour>
      <point x="74" y="1" type="line"/>
      <point x="503" y="1" type="line"/>
      <point x="516" y="57" type="line"/>
      <point x="87" y="57" type="line"/>
    </contour>
  </outline>
</glyph>
<glyph name="caron.alt.short" format="2">
  <advance width="336"/>
  <outline>
    <contour>
      <point x="287" y="582" type="line"/>
      <point x="338" y="582" type="line"/>
      <point x="406" y="776" type="line"/>
      <point x="335" y="776" type="line"/>
    </contour>
  </outline>
</glyph>
<glyph name="dieresis_acute" format="2">
  <advance width="336"/>
  <outline>
    <contour>
      <point x="346" y="679" type="line"/>
      <point x="459" y="800" type="line"/>
      <point x="409" y="845" type="line"/>
      <point x="311" y="708" type="line"/>
    </contour>
    <contour>
      <point x="228" y="594" type="curve" smooth="yes"/>
      <point x="260" y="594"/>
      <point x="278" y="623"/>
      <point x="278" y="648" type="curve" smooth="yes"/>
      <point x="278" y="670"/>
      <point x="265" y="690"/>
      <point x="234" y="690" type="curve" smooth="yes"/>
      <point x="202" y="690"/>
      <point x="184" y="661"/>
      <point x="184" y="636" type="curve" smooth="yes"/>
      <point x="184" y="614"/>
      <point x="197" y="594"/>
    </contour>
    <contour>
      <point x="438" y="594" type="curve" smooth="yes"/>
      <point x="470" y="594"/>
      <point x="488" y="623"/>
      <point x="488" y="648" type="curve" smooth="yes"/>
      <point x="488" y="670"/>
      <point x="475" y="690"/>
      <point x="444" y="690" type="curve" smooth="yes"/>
      <point x="412" y="690"/>
      <point x="394" y="661"/>
      <point x="394" y="636" type="curve" smooth="yes"/>
      <point x="394" y="614"/>
      <point x="407" y="594"/>
    </contour>
  </outline>
</glyph>
<glyph name="tilde_macron" format="2">
  <advance width="336"/>
  <outline>
    <contour>
      <point x="214" y="587" type="line"/>
      <point x="229" y="617"/>
      <point x="241" y="633"/>
      <point x="262" y="633" type="curve" smooth="yes"/>
      <point x="310" y="633"/>
      <point x="330" y="594"/>
      <point x="380" y="594" type="curve" smooth="yes"/>
      <point x="436" y="594"/>
      <point x="460" y="632"/>
      <point x="479" y="670" type="curve"/>
      <point x="443" y="693" type="line"/>
      <point x="427" y="663"/>
      <point x="416" y="647"/>
      <point x="394" y="647" type="curve" smooth="yes"/>
      <point x="346" y="647"/>
      <point x="325" y="686"/>
      <point x="276" y="686" type="curve" smooth="yes"/>
      <point x="220" y="686"/>
      <point x="197" y="647"/>
      <point x="178" y="609" type="curve"/>
    </contour>
    <contour>
      <point x="224" y="743" type="line"/>
      <point x="475" y="743" type="line"/>
      <point x="488" y="797" type="line"/>
      <point x="237" y="797" type="line"/>
    </contour>
  </outline>
</glyph>
